<svg width="36" height="36" viewBox="0 0 128 128" fill="none" xmlns="http://www.w3.org/2000/svg">
<path fill-rule="evenodd" clip-rule="evenodd" d="M109.458 40.005C108.961 39.323 107.781 39.3844 107.265 40.1417C107.021 40.5081 106.749 40.9745 106.443 41.5074C104.415 45.0453 100.633 51.6301 89.7259 51.6774C88.7514 51.6809 88.3 52.2191 88.2027 52.7223C88.0852 53.3482 88.467 53.9793 89.1166 54.2142C98.3937 57.6013 94.7159 70.7359 93.3321 75.678C93.1725 76.2425 93.044 76.7053 92.9669 77.0297C92.8587 77.496 92.9412 77.9273 93.2018 78.2393C93.4386 78.5233 93.8056 78.6829 94.202 78.6829C94.8187 78.6829 95.3692 78.2972 95.6005 77.6976L95.8482 77.0647C97.7018 72.2804 108.557 44.2756 109.53 41.7441C109.891 40.8132 109.642 40.2557 109.458 40.005ZM90.8125 85.3168H37.1893C36.7837 85.3168 36.4019 85.5009 36.1432 85.834C35.9046 86.1548 35.8385 86.5703 35.9707 86.949L37.5691 91.0864C37.7527 91.586 38.2463 91.9209 38.7987 91.9209H89.2067C89.7481 91.9209 90.2528 91.579 90.4326 91.0934L92.0421 86.9332C92.1669 86.5598 92.099 86.1443 91.8512 85.8199C91.6017 85.5009 91.2199 85.3168 90.8125 85.3168ZM47.9857 53.9144C59.3842 55.6868 61.1405 64.2474 62.5169 77.1015C62.6931 78.7565 63.7851 78.8406 63.9998 78.8406C64.22 78.8406 65.3046 78.7565 65.4845 77.1015C66.8609 64.2474 68.6172 55.6868 80.0176 53.9144C80.7847 53.7969 81.3426 53.1781 81.3096 52.4751C81.2839 51.9351 80.8765 51.2707 79.801 51.1918C68.764 50.3801 67.105 43.7199 65.8901 38.8619C65.7322 38.2272 65.5818 37.6294 65.4239 37.0772C65.0477 35.7974 64.3155 35.6571 63.9833 35.6571C63.6896 35.6571 62.9574 35.7974 62.5793 37.0772C62.4197 37.6294 62.2692 38.2272 62.115 38.8584C60.8983 43.7199 59.2374 50.3766 48.1967 51.1918C47.125 51.2707 46.7157 51.9351 46.6918 52.4751C46.6588 53.1781 47.2149 53.7969 47.9857 53.9144ZM34.6731 75.6885C33.2857 70.7428 29.6006 57.6048 38.8849 54.2142C39.5328 53.9792 39.9163 53.3516 39.797 52.7257C39.7053 52.2419 39.2538 51.6809 38.2756 51.6774C27.3689 51.63 23.5865 45.0452 21.5586 41.5074C21.2503 40.9744 20.9805 40.5081 20.7328 40.1382C20.2244 39.3843 19.0407 39.3229 18.5434 40.0049C18.3598 40.2521 18.1084 40.8096 18.47 41.744C19.4114 44.1792 29.5051 70.2257 31.9129 76.4335L32.4011 77.6976C32.6342 78.2971 33.1811 78.6828 33.7977 78.6828H33.7995C34.1959 78.6828 34.5612 78.5233 34.7979 78.2393C35.0603 77.9272 35.1448 77.4995 35.0346 77.0296C34.9576 76.7053 34.8309 76.2495 34.6731 75.6885Z" fill="#E9A216"/>
</svg>
