<svg width="280" height="100" viewBox="0 0 496 100" fill="none" xmlns="http://www.w3.org/2000/svg">
<path d="M259.19 69.78C261.21 67.31 262.23 64.18 262.23 60.48C262.23 56.78 261.18 53.66 259.11 51.17C257.07 48.71 254.42 47.06 251.23 46.28C249.09 45.74 245.38 45.49 239.54 45.49H227.8V98.04H236.84V75.56H238.18C244.4 75.56 248.58 75.28 250.97 74.72C254.41 73.89 257.17 72.23 259.17 69.78H259.19ZM252.05 63.86C251.42 64.84 250.56 65.53 249.44 65.97C248.56 66.32 246.72 66.73 242.97 66.73L236.87 66.66V54.44H243.3C247.01 54.44 248.76 54.82 249.58 55.15C250.62 55.56 251.41 56.22 252.06 57.21C252.72 58.21 253.04 59.29 253.04 60.5C253.04 61.71 252.72 62.86 252.06 63.87L252.05 63.86ZM38.18 45.5H25.52L9.13 60.88V45.5H0V98.05H9.13V78.74L27.3 98.05H39.51L12.6 69.39L38.18 45.5ZM116.31 79.03L87.19 45.5H83.08V98.05H92.28V64.96L121.13 98.05H125.28V45.5H116.31V79.03ZM53 98.05H62.04V45.5H53V98.05ZM168.72 79.55H183.64C182.8 82.41 181.2 84.77 178.8 86.73C175.76 89.21 171.96 90.47 167.51 90.47C163.8 90.47 160.33 89.61 157.21 87.91C154.12 86.23 151.68 83.89 149.93 80.96C148.18 78.03 147.3 74.91 147.3 71.67C147.3 68.43 148.15 65.48 149.83 62.64C151.51 59.8 153.92 57.52 157 55.84C162.77 52.71 169.05 52.48 175.38 55.19C178.33 56.45 181.09 58.33 183.59 60.78L185.03 62.21L191.86 55.73L190.25 54.21C186.63 50.78 182.85 48.24 179.02 46.67C175.17 45.09 171.01 44.29 166.65 44.29C161.24 44.29 156.32 45.5 152.03 47.89C147.71 50.28 144.25 53.66 141.76 57.92C139.28 62.17 138.02 66.83 138.02 71.76C138.02 78.4 140.21 84.34 144.54 89.4C150.15 95.95 157.83 99.27 167.37 99.27C175.28 99.27 181.71 96.85 186.49 92.07C191.27 87.29 193.72 80.81 193.76 72.8V70.68H168.72V79.56V79.55ZM478.35 75.39C480.82 75.12 482.93 74.61 484.62 73.86C487.3 72.67 489.4 70.87 490.86 68.52C492.3 66.2 493.03 63.49 493.03 60.47C493.03 56.82 491.96 53.68 489.85 51.15C487.77 48.64 485.03 46.98 481.71 46.21C479.63 45.73 475.9 45.5 470.32 45.5H458.36V98.05H467.4V75.83L484.62 98.05H495.91L478.35 75.39ZM467.39 66.68V54.44H474.04C477.82 54.44 479.57 54.82 480.37 55.15C481.4 55.56 482.22 56.23 482.86 57.2C483.51 58.18 483.83 59.24 483.83 60.46C483.83 61.68 483.51 62.83 482.86 63.84C482.24 64.81 481.38 65.51 480.23 65.96C479.34 66.31 477.52 66.73 473.86 66.73L467.39 66.68ZM296.79 44.29C291.92 44.29 287.33 45.52 283.14 47.94C278.94 50.37 275.59 53.77 273.18 58.04C270.76 62.31 269.53 67 269.53 71.99C269.53 79.51 272.23 86 277.55 91.29C282.87 96.58 289.48 99.26 297.19 99.26C304.9 99.26 311.38 96.56 316.68 91.25C321.99 85.93 324.68 79.37 324.68 71.75C324.68 64.13 321.98 57.49 316.66 52.21C311.34 46.94 304.66 44.27 296.79 44.27V44.29ZM313.07 81.23C311.48 84.04 309.23 86.29 306.38 87.91C303.52 89.54 300.37 90.37 297.01 90.37C291.99 90.37 287.65 88.58 284.09 85.05C280.54 81.52 278.73 77.12 278.73 71.98C278.73 68.49 279.55 65.29 281.16 62.47C282.76 59.66 285.03 57.38 287.89 55.71C290.76 54.04 293.83 53.2 297.01 53.2C300.19 53.2 303.39 54.05 306.3 55.72C309.21 57.39 311.49 59.63 313.08 62.39C314.67 65.15 315.48 68.3 315.48 71.75C315.48 75.2 314.67 78.42 313.08 81.24L313.07 81.23ZM442.01 89.11H416.94V74.32H438.71V65.38H416.94V54.43H442.01V45.49H407.9V98.04H442.01V89.1V89.11ZM394.67 45.5H385.36L376.59 75.92L364.63 45.5H360.76L348.67 75.91L340.05 45.5H330.71L345.61 98.05H349.52L362.71 65.08L375.64 98.05H379.56L394.66 45.5H394.67Z" fill="white"/>
<path d="M41.53 22.83C40.77 20.01 38.77 12.52 43.82 10.58C44.17 10.45 44.38 10.09 44.32 9.73C44.27 9.45 44.02 9.13 43.49 9.13C37.55 9.1 35.49 5.35 34.38 3.33C34.21 3.03 34.07 2.76 33.93 2.55C33.65 2.12 33.01 2.09 32.74 2.47C32.64 2.61 32.5 2.93 32.7 3.46C33.21 4.85 38.71 19.71 40.03 23.25L40.3 23.97C40.43 24.31 40.73 24.53 41.06 24.53C41.28 24.53 41.47 24.44 41.6 24.28C41.74 24.1 41.79 23.86 41.73 23.59C41.69 23.4 41.62 23.14 41.53 22.82V22.83ZM48.78 10.41C54.99 11.42 55.95 16.3 56.7 23.64C56.8 24.58 57.39 24.63 57.51 24.63C57.63 24.63 58.22 24.58 58.32 23.64C59.07 16.31 60.03 11.43 66.24 10.41C66.66 10.34 66.96 9.99 66.94 9.59C66.93 9.28 66.7 8.9 66.12 8.86C60.11 8.4 59.2 4.6 58.54 1.83C58.45 1.47 58.37 1.13 58.29 0.810001C58.08 0.0800014 57.69 0 57.5 0C57.34 0 56.94 0.0800014 56.74 0.810001C56.65 1.12 56.57 1.47 56.49 1.83C55.83 4.6 54.92 8.4 48.91 8.87C48.33 8.91 48.1 9.29 48.09 9.6C48.07 10 48.38 10.35 48.8 10.42L48.78 10.41ZM72.12 28.32H42.9C42.68 28.32 42.47 28.43 42.33 28.61C42.2 28.79 42.16 29.03 42.24 29.25L43.11 31.61C43.21 31.9 43.48 32.09 43.78 32.09H71.25C71.54 32.09 71.82 31.89 71.92 31.62L72.8 29.25C72.87 29.04 72.83 28.8 72.7 28.62C72.56 28.44 72.36 28.33 72.13 28.33L72.12 28.32ZM82.28 2.47C82.01 2.08 81.37 2.12 81.08 2.55C80.95 2.76 80.8 3.02 80.63 3.33C79.52 5.35 77.46 9.1 71.52 9.13C70.99 9.13 70.74 9.44 70.69 9.73C70.63 10.09 70.83 10.45 71.19 10.58C76.24 12.51 74.24 20 73.49 22.82C73.4 23.14 73.33 23.41 73.29 23.59C73.23 23.86 73.28 24.1 73.42 24.28C73.55 24.44 73.75 24.53 73.97 24.53C74.31 24.53 74.61 24.31 74.73 23.97L74.86 23.61C75.87 20.88 81.78 4.91 82.32 3.46C82.52 2.93 82.38 2.61 82.28 2.47Z" fill="#EAA216"/>
</svg>
